<svg xmlns="http://www.w3.org/2000/svg" width="43" height="48" fill="none" viewBox="0 0 44 48"><path fill="#394149" fill-rule="evenodd" d="M23.2 8.047a6.978 6.978 0 0 0-.737-3.12 6.979 6.979 0 0 1-.723-2.686L21.6 0l-.14 2.24a6.98 6.98 0 0 1-.723 2.686A6.98 6.98 0 0 0 20 8.047v31.905a6.98 6.98 0 0 0 .737 3.122 6.98 6.98 0 0 1 .723 2.685L21.6 48l.14-2.24a6.979 6.979 0 0 1 .723-2.686 6.977 6.977 0 0 0 .737-3.121V8.047Zm-8.737.08a6.97 6.97 0 0 1 .737 3.12v25.505a6.978 6.978 0 0 1-.737 3.122 6.98 6.98 0 0 0-.723 2.685L13.6 44.8l-.14-2.24a6.98 6.98 0 0 0-.723-2.686A6.978 6.978 0 0 1 12 36.752V11.247a6.97 6.97 0 0 1 .737-3.12 6.98 6.98 0 0 0 .723-2.686L13.6 3.2l.14 2.24a6.98 6.98 0 0 0 .723 2.686Zm-3.263 6.32a6.977 6.977 0 0 0-.737-3.12A6.98 6.98 0 0 1 9.74 8.64L9.6 6.4l-.14 2.24a6.98 6.98 0 0 1-.723 2.686A6.978 6.978 0 0 0 8 14.447v19.106c0 1.083.252 2.152.737 3.12a6.98 6.98 0 0 1 .723 2.686L9.6 41.6l.14-2.24a6.98 6.98 0 0 1 .723-2.687 6.978 6.978 0 0 0 .737-3.12V14.448Zm-4.737 3.28a6.98 6.98 0 0 1 .737 3.12v6.305a6.979 6.979 0 0 1-.737 3.121 6.98 6.98 0 0 0-.723 2.686L5.6 35.2l-.14-2.24a6.98 6.98 0 0 0-.723-2.687A6.979 6.979 0 0 1 4 27.153v-6.305a6.98 6.98 0 0 1 .737-3.122 6.979 6.979 0 0 0 .723-2.685L5.6 12.8l.14 2.24c.058.935.304 1.849.723 2.686ZM3.2 24v.047-.095V24Zm-3.2.047V24a6.978 6.978 0 0 0 .737 3.073 6.98 6.98 0 0 1 .723 2.686L1.6 32l.14-2.24a6.98 6.98 0 0 1 .723-2.687c.478-.954.73-2.006.737-3.073a6.978 6.978 0 0 0-.737-3.073 6.98 6.98 0 0 1-.723-2.686L1.6 16l-.14 2.24a6.98 6.98 0 0 1-.723 2.687A6.978 6.978 0 0 0 0 24v-.047.095Zm18.463-19.12a6.97 6.97 0 0 1 .737 3.12v31.905a6.977 6.977 0 0 1-.737 3.122 6.98 6.98 0 0 0-.723 2.685L17.6 48l-.14-2.24a6.98 6.98 0 0 0-.723-2.686A6.977 6.977 0 0 1 16 39.953V8.047c0-1.083.252-2.152.737-3.12a6.98 6.98 0 0 0 .723-2.686L17.6 0l.14 2.24a6.98 6.98 0 0 0 .723 2.686Zm8 0a6.97 6.97 0 0 1 .737 3.12v31.905a6.977 6.977 0 0 1-.737 3.122 6.98 6.98 0 0 0-.723 2.685L25.6 48l-.14-2.24a6.98 6.98 0 0 0-.723-2.686A6.977 6.977 0 0 1 24 39.953V8.047c0-1.083.252-2.152.737-3.12a6.98 6.98 0 0 0 .723-2.686L25.6 0l.14 2.24a6.98 6.98 0 0 0 .723 2.686Zm4.737 6.32a6.978 6.978 0 0 0-.737-3.12 6.98 6.98 0 0 1-.723-2.686L29.6 3.2l-.14 2.24a6.98 6.98 0 0 1-.723 2.686A6.978 6.978 0 0 0 28 11.248v25.504c0 1.084.252 2.152.737 3.122a6.98 6.98 0 0 1 .723 2.685l.14 2.241.14-2.24a6.98 6.98 0 0 1 .723-2.686c.485-.97.737-2.038.737-3.122V11.247Zm3.263.08a6.97 6.97 0 0 1 .737 3.12v19.106a6.978 6.978 0 0 1-.737 3.12 6.98 6.98 0 0 0-.723 2.686L33.6 41.6l-.14-2.24a6.98 6.98 0 0 0-.723-2.687 6.979 6.979 0 0 1-.737-3.12V14.448c0-1.084.252-2.152.737-3.122a6.981 6.981 0 0 0 .723-2.685L33.6 6.4l.14 2.24c.058.935.304 1.849.723 2.686Zm4.737 9.52a6.978 6.978 0 0 0-.737-3.12 6.98 6.98 0 0 1-.723-2.686L37.6 12.8l-.14 2.24a6.98 6.98 0 0 1-.723 2.686A6.98 6.98 0 0 0 36 20.848v6.305c0 1.083.252 2.152.737 3.12a6.98 6.98 0 0 1 .723 2.686l.14 2.241.14-2.24a6.98 6.98 0 0 1 .723-2.687 6.978 6.978 0 0 0 .737-3.12v-6.305Zm4 3.153v.047-.095V24ZM40 24a6.977 6.977 0 0 0 .737 3.073 6.98 6.98 0 0 1 .723 2.686L41.6 32l.14-2.24a6.98 6.98 0 0 1 .723-2.687c.478-.954.73-2.006.737-3.073a6.977 6.977 0 0 0-.737-3.073 6.98 6.98 0 0 1-.723-2.686L41.6 16l-.14 2.24a6.98 6.98 0 0 1-.723 2.687A6.977 6.977 0 0 0 40 24Zm0 0v-.047.095V24Z" class="ccustom" clip-rule="evenodd"/></svg>